<svg width="495" height="27" viewBox="0 0 495 27" fill="none" xmlns="http://www.w3.org/2000/svg">
<rect x="1" y="1" width="25" height="25" rx="12.5" stroke="#21213E"/>
<path d="M20.0002 10.6667L12.0002 18.6667L8.3335 15L9.2735 14.06L12.0002 16.78L19.0602 9.72668L20.0002 10.6667Z" fill="#21213E"/>
<path d="M39.0731 18.682C36.6651 18.682 34.9291 17.436 34.7891 15.182H35.8531C35.9931 16.736 36.9451 17.786 39.0311 17.786C40.8791 17.786 41.5091 16.904 41.5091 15.798C41.5231 14.314 40.4871 14.062 38.4291 13.6C36.7911 13.222 35.2091 12.718 35.2091 10.884C35.2091 9.288 36.4831 8.308 38.5411 8.308C40.7111 8.308 42.0831 9.414 42.2371 11.374H41.1731C41.0051 9.988 40.2351 9.204 38.5411 9.204C37.0711 9.204 36.2731 9.806 36.2731 10.842C36.2731 12.186 37.4631 12.466 38.9331 12.788C40.9911 13.236 42.5731 13.74 42.5731 15.77C42.5731 17.394 41.4531 18.682 39.0731 18.682ZM47.2661 11.192C48.5401 11.192 49.6041 11.906 49.6041 13.488V18.5H48.6941V13.684C48.6941 12.774 48.2741 11.99 47.0421 11.99C45.6841 11.99 44.7881 12.942 44.7881 13.992V18.5H43.8781V8.49H44.7881V12.382H44.8161C45.2221 11.794 45.9921 11.192 47.2661 11.192ZM54.2716 18.696C52.1296 18.696 50.8416 17.156 50.8416 14.944C50.8416 12.718 52.1296 11.178 54.2716 11.178C56.4136 11.178 57.7016 12.718 57.7016 14.944C57.7016 17.156 56.4136 18.696 54.2716 18.696ZM54.2716 17.898C55.9376 17.898 56.7496 16.582 56.7496 14.944C56.7496 13.292 55.9376 11.976 54.2716 11.976C52.6056 11.976 51.7936 13.292 51.7936 14.944C51.7936 16.582 52.6056 17.898 54.2716 17.898ZM62.3315 11.178C64.0815 11.178 65.4815 12.578 65.4815 14.93C65.4815 17.268 64.0815 18.668 62.3315 18.668C61.0855 18.668 60.3435 18.052 59.9235 17.296H59.8955V20.978H58.9855V11.36H59.8955V12.508H59.9235C60.3435 11.822 61.0855 11.178 62.3315 11.178ZM62.2335 17.87C63.7175 17.87 64.5295 16.526 64.5295 14.93C64.5295 13.32 63.7175 11.976 62.2335 11.976C60.8615 11.976 59.8955 13.124 59.8955 14.93C59.8955 16.722 60.8615 17.87 62.2335 17.87ZM70.1245 11.178C71.8745 11.178 73.2745 12.578 73.2745 14.93C73.2745 17.268 71.8745 18.668 70.1245 18.668C68.8785 18.668 68.1365 18.052 67.7165 17.296H67.6885V20.978H66.7785V11.36H67.6885V12.508H67.7165C68.1365 11.822 68.8785 11.178 70.1245 11.178ZM70.0265 17.87C71.5105 17.87 72.3225 16.526 72.3225 14.93C72.3225 13.32 71.5105 11.976 70.0265 11.976C68.6545 11.976 67.6885 13.124 67.6885 14.93C67.6885 16.722 68.6545 17.87 70.0265 17.87ZM75.6074 9.932H74.4314V8.756H75.6074V9.932ZM75.4814 18.5H74.5714V11.36H75.4814V18.5ZM80.5434 11.192C81.8174 11.192 82.8814 11.906 82.8814 13.488V18.5H81.9714V13.684C81.9714 12.774 81.5514 11.99 80.3194 11.99C78.9614 11.99 78.0654 12.942 78.0654 13.992V18.5H77.1554V11.36H78.0654V12.382H78.0934C78.4994 11.794 79.2694 11.192 80.5434 11.192ZM89.7329 12.48V11.36H90.6429V18.052C90.6429 20.082 89.3829 21.062 87.4229 21.062C85.4909 21.062 84.4689 20.124 84.3569 18.878H85.3089C85.4489 19.648 86.0509 20.264 87.4369 20.264C88.8789 20.264 89.7329 19.634 89.7329 18.178V16.848H89.7049C89.2849 17.59 88.5009 18.164 87.2969 18.164C85.5889 18.164 84.1609 17.044 84.1609 14.664C84.1609 12.312 85.5889 11.192 87.2969 11.192C88.5009 11.192 89.2849 11.766 89.7049 12.48H89.7329ZM87.4229 17.366C88.7389 17.366 89.7329 16.498 89.7329 14.664C89.7329 12.858 88.7389 11.99 87.4229 11.99C85.9529 11.99 85.1129 13.054 85.1129 14.664C85.1129 16.302 85.9529 17.366 87.4229 17.366ZM99.8464 18.5H95.5904V8.49H99.5804C101.554 8.49 102.744 9.442 102.744 11.01C102.744 12.2 102.058 12.816 101.162 13.124V13.152C102.282 13.362 103.15 14.188 103.15 15.63C103.15 17.52 101.834 18.5 99.8464 18.5ZM96.6124 12.788H99.7764C101.162 12.788 101.68 12.102 101.68 11.108C101.68 10.086 101.064 9.386 99.7764 9.386H96.6124V12.788ZM96.6124 17.604H99.8884C101.47 17.604 102.086 16.792 102.086 15.63C102.086 14.454 101.33 13.684 100.14 13.684H96.6124V17.604ZM106.487 18.682C105.059 18.682 104.149 17.884 104.149 16.694C104.149 15.154 105.241 14.664 107.089 14.342C108.265 14.132 109.021 14.048 109.021 13.194C109.021 12.466 108.545 11.976 107.397 11.976C106.011 11.976 105.521 12.466 105.451 13.516H104.485C104.555 12.256 105.353 11.178 107.425 11.178C108.741 11.178 109.903 11.738 109.903 13.446V17.016C109.903 17.59 109.987 17.856 110.309 17.856C110.365 17.856 110.421 17.856 110.505 17.842V18.5C110.351 18.528 110.197 18.556 110.029 18.556C109.427 18.556 109.077 18.318 109.021 17.422H108.993C108.503 18.234 107.649 18.682 106.487 18.682ZM106.599 17.884C108.055 17.884 109.021 17.114 109.021 15.826V14.496C108.811 14.79 108.055 14.958 107.201 15.098C105.815 15.35 105.101 15.7 105.101 16.61C105.101 17.436 105.563 17.884 106.599 17.884ZM116.858 12.48V11.36H117.768V18.052C117.768 20.082 116.508 21.062 114.548 21.062C112.616 21.062 111.594 20.124 111.482 18.878H112.434C112.574 19.648 113.176 20.264 114.562 20.264C116.004 20.264 116.858 19.634 116.858 18.178V16.848H116.83C116.41 17.59 115.626 18.164 114.422 18.164C112.714 18.164 111.286 17.044 111.286 14.664C111.286 12.312 112.714 11.192 114.422 11.192C115.626 11.192 116.41 11.766 116.83 12.48H116.858ZM114.548 17.366C115.864 17.366 116.858 16.498 116.858 14.664C116.858 12.858 115.864 11.99 114.548 11.99C113.078 11.99 112.238 13.054 112.238 14.664C112.238 16.302 113.078 17.366 114.548 17.366Z" fill="#21213E"/>
<line x1="128" y1="12.5" x2="192" y2="12.5" stroke="#21213E" stroke-width="2"/>
<rect x="201" y="1" width="25" height="25" rx="12.5" fill="#21213E"/>
<path d="M217.281 19H210.407C210.407 17.18 211.513 15.92 213.361 14.772C214.999 13.778 215.825 13.372 215.825 12.084C215.825 11.286 215.503 10.432 214.187 10.432C212.675 10.432 212.199 11.412 212.199 12.742H210.659C210.659 10.684 211.779 9.13 214.229 9.13C215.979 9.13 217.393 10.18 217.393 12.028C217.393 13.904 215.867 14.87 214.481 15.724C213.529 16.284 212.633 16.816 212.353 17.67V17.698H217.281V19Z" fill="white"/>
<path d="M239.501 18.724C236.323 18.724 234.713 16.512 234.713 13.53C234.713 10.464 236.407 8.266 239.571 8.266C242.301 8.266 243.757 9.89 243.995 12.214H241.419C241.237 11.122 240.789 10.324 239.459 10.324C237.793 10.324 237.289 11.612 237.289 13.488C237.289 15.378 237.793 16.666 239.459 16.666C240.803 16.666 241.251 15.868 241.419 14.748H243.995C243.771 17.044 242.259 18.724 239.501 18.724ZM249.468 11.108C250.854 11.108 251.792 12.018 251.792 13.656V18.5H249.552V14.37C249.552 13.292 249.174 12.928 248.432 12.928C247.578 12.928 247.088 13.362 247.088 14.356V18.5H244.848V8.49H247.088V12.368H247.116C247.494 11.71 248.194 11.108 249.468 11.108ZM260.067 15.182V15.518H254.915C254.915 16.512 255.615 17.058 256.455 17.058C257.253 17.058 257.589 16.694 257.729 16.33H260.011C259.605 17.786 258.415 18.738 256.399 18.738C254.075 18.738 252.675 17.156 252.675 14.916C252.675 12.816 253.991 11.094 256.399 11.094C258.835 11.094 260.067 12.536 260.067 15.182ZM254.929 14.132H257.813C257.813 13.208 257.267 12.718 256.399 12.718C255.545 12.718 254.985 13.208 254.929 14.132ZM264.397 18.738C262.129 18.738 260.701 17.156 260.701 14.916C260.701 12.69 262.129 11.094 264.341 11.094C266.413 11.094 267.673 12.326 267.855 14.006H265.601C265.531 13.418 265.279 12.774 264.383 12.774C263.459 12.774 262.997 13.572 262.997 14.916C262.997 16.26 263.445 17.058 264.383 17.058C265.265 17.058 265.531 16.456 265.601 15.798H267.855C267.743 17.506 266.455 18.738 264.397 18.738ZM276 18.5H273.41L271.716 15.546L270.932 16.372V18.5H268.692V8.49H270.932V13.992L273.326 11.332H275.706L273.172 14.02L276 18.5ZM279.452 18.738C277.086 18.738 275.644 17.198 275.644 14.93C275.644 12.676 277.086 11.094 279.494 11.094C281.86 11.094 283.302 12.634 283.302 14.888C283.302 17.156 281.86 18.738 279.452 18.738ZM279.48 17.058C280.474 17.058 281.034 16.302 281.034 14.916C281.034 13.53 280.474 12.774 279.48 12.774C278.472 12.774 277.912 13.53 277.912 14.916C277.912 16.302 278.472 17.058 279.48 17.058ZM288.885 15.476V11.332H291.125V18.5H288.885V17.464H288.857C288.479 18.122 287.779 18.724 286.505 18.724C285.119 18.724 284.181 17.814 284.181 16.176V11.332H286.421V15.462C286.421 16.54 286.799 16.904 287.541 16.904C288.395 16.904 288.885 16.47 288.885 15.476ZM295.9 16.96C296.11 16.96 296.236 16.946 296.502 16.904V18.486C296.026 18.598 295.62 18.64 295.172 18.64C293.604 18.64 292.932 17.926 292.932 16.176V13.012H291.938V11.332H292.932V9.33H295.172V11.332H296.418V13.012H295.172V16.12C295.172 16.89 295.466 16.96 295.9 16.96ZM304.939 18.5H300.361V8.49H304.799C307.585 8.49 309.265 10.282 309.265 13.502C309.265 16.722 307.725 18.5 304.939 18.5ZM302.881 16.442H304.491C306.059 16.442 306.689 15.322 306.689 13.502C306.689 11.682 306.059 10.548 304.491 10.548H302.881V16.442ZM317.284 15.182V15.518H312.132C312.132 16.512 312.832 17.058 313.672 17.058C314.47 17.058 314.806 16.694 314.946 16.33H317.228C316.822 17.786 315.632 18.738 313.616 18.738C311.292 18.738 309.892 17.156 309.892 14.916C309.892 12.816 311.208 11.094 313.616 11.094C316.052 11.094 317.284 12.536 317.284 15.182ZM312.146 14.132H315.03C315.03 13.208 314.484 12.718 313.616 12.718C312.762 12.718 312.202 13.208 312.146 14.132ZM321.631 16.96C321.841 16.96 321.967 16.946 322.233 16.904V18.486C321.757 18.598 321.351 18.64 320.903 18.64C319.335 18.64 318.663 17.926 318.663 16.176V13.012H317.669V11.332H318.663V9.33H320.903V11.332H322.149V13.012H320.903V16.12C320.903 16.89 321.197 16.96 321.631 16.96ZM325.19 18.724C323.79 18.724 322.908 17.898 322.908 16.624C322.908 15.14 324.126 14.566 325.652 14.244C326.436 14.076 327.542 13.964 327.542 13.25C327.542 12.858 327.234 12.606 326.59 12.606C325.764 12.606 325.386 12.942 325.316 13.642H323.188C323.258 12.27 324.266 11.094 326.688 11.094C328.634 11.094 329.712 11.878 329.712 14.076V16.848C329.712 17.226 329.754 17.394 329.978 17.394C330.034 17.394 330.076 17.394 330.16 17.38V18.444C329.712 18.528 329.25 18.57 328.928 18.57C328.032 18.57 327.696 18.234 327.584 17.632H327.556C327.052 18.262 326.226 18.724 325.19 18.724ZM326.128 17.184C327.024 17.184 327.542 16.428 327.542 15.602V15C327.248 15.112 326.912 15.196 326.324 15.336C325.498 15.532 325.204 15.882 325.204 16.386C325.204 16.932 325.554 17.184 326.128 17.184ZM333.344 10.478H331.104V8.49H333.344V10.478ZM333.344 18.5H331.104V11.332H333.344V18.5ZM336.817 18.5H334.577V8.49H336.817V18.5ZM341.228 18.724C338.722 18.724 337.742 17.52 337.686 16.12H339.786C339.856 16.834 340.332 17.184 341.186 17.184C341.844 17.184 342.138 16.974 342.138 16.568C342.138 15.924 341.424 15.854 340.388 15.616C339.128 15.322 337.826 14.818 337.826 13.362C337.826 12.018 338.946 11.108 340.962 11.108C343.258 11.108 344.154 12.27 344.224 13.53H342.124C342.054 12.956 341.746 12.648 341.004 12.648C340.388 12.648 340.122 12.872 340.122 13.222C340.122 13.698 340.542 13.726 341.62 13.978C343.034 14.314 344.434 14.734 344.434 16.4C344.434 17.898 343.3 18.724 341.228 18.724Z" fill="#21213E"/>
<line x1="354" y1="12.5" x2="418" y2="12.5" stroke="#D0D0DB" stroke-width="2"/>
<rect x="427" y="1" width="25" height="25" rx="12.5" fill="#21213E" fill-opacity="0.16"/>
<path d="M440.629 19.196C438.137 19.196 436.737 17.908 436.737 15.696H438.277C438.277 17.026 438.837 17.894 440.531 17.894C442.057 17.894 442.575 17.278 442.575 16.242C442.575 14.912 441.623 14.59 440.643 14.59H439.733V13.344H440.587C441.553 13.344 442.239 12.91 442.239 11.86C442.239 11.104 441.777 10.432 440.587 10.432C438.949 10.432 438.543 11.3 438.543 12.238H437.003C437.003 10.446 438.221 9.13 440.601 9.13C442.323 9.13 443.807 10.082 443.807 11.79C443.807 12.826 443.275 13.47 442.351 13.862V13.89C443.625 14.296 444.143 15.136 444.143 16.27C444.143 18.146 442.757 19.196 440.629 19.196Z" fill="#21213E"/>
<path d="M462.373 18.5H461.351V8.49H468.043V9.386H462.373V12.928H467.049V13.824H462.373V18.5ZM470.106 9.932H468.93V8.756H470.106V9.932ZM469.98 18.5H469.07V11.36H469.98V18.5ZM475.042 11.192C476.316 11.192 477.38 11.906 477.38 13.488V18.5H476.47V13.684C476.47 12.774 476.05 11.99 474.818 11.99C473.46 11.99 472.564 12.942 472.564 13.992V18.5H471.654V11.36H472.564V12.382H472.592C472.998 11.794 473.768 11.192 475.042 11.192ZM480.046 9.932H478.87V8.756H480.046V9.932ZM479.92 18.5H479.01V11.36H479.92V18.5ZM484.226 18.682C482.224 18.682 481.132 17.59 481.09 16.162H482.042C482.098 17.142 482.742 17.884 484.24 17.884C485.598 17.884 486.06 17.254 486.06 16.554C486.06 15.504 484.996 15.392 484.002 15.154C482.686 14.818 481.356 14.496 481.356 13.11C481.356 11.948 482.28 11.192 483.89 11.192C485.752 11.192 486.62 12.186 486.746 13.362H485.794C485.668 12.732 485.29 11.99 483.904 11.99C482.882 11.99 482.308 12.382 482.308 13.054C482.308 13.95 483.274 14.076 484.352 14.342C485.696 14.664 487.026 15.042 487.026 16.526C487.026 17.828 485.99 18.682 484.226 18.682ZM491.585 11.192C492.859 11.192 493.923 11.906 493.923 13.488V18.5H493.013V13.684C493.013 12.774 492.593 11.99 491.361 11.99C490.003 11.99 489.107 12.942 489.107 13.992V18.5H488.197V8.49H489.107V12.382H489.135C489.541 11.794 490.311 11.192 491.585 11.192Z" fill="#21213E" fill-opacity="0.72"/>
</svg>
