<svg width="490" height="25" viewBox="0 0 490 25" fill="none" xmlns="http://www.w3.org/2000/svg">
<rect width="25" height="25" rx="12.5" fill="#21213E"/>
<path d="M12.3263 18V10.818C11.9063 11.21 11.1643 11.28 10.2963 11.28V10.048C12.0043 10.006 12.5083 9.488 12.6343 8.326H13.8383V18H12.3263Z" fill="white"/>
<path d="M37.9472 17.724C35.3292 17.724 33.3552 16.394 33.3552 14.098H35.9032C35.9032 15.26 36.7852 15.694 37.9192 15.694C38.8572 15.694 39.3332 15.316 39.3332 14.798C39.3332 13.944 38.3392 13.72 36.9532 13.3C35.2172 12.768 33.6632 12.096 33.6632 10.304C33.6632 8.12 35.3712 7.266 37.5272 7.266C39.8652 7.266 41.6992 8.498 41.7692 10.528H39.2212C39.1092 9.758 38.4932 9.296 37.5272 9.296C36.7712 9.296 36.2392 9.548 36.2392 10.122C36.2392 10.794 36.7992 11.018 38.0732 11.396C39.9632 11.956 41.9092 12.488 41.9092 14.56C41.9092 16.478 40.4532 17.724 37.9472 17.724ZM47.403 10.108C48.789 10.108 49.727 11.018 49.727 12.656V17.5H47.487V13.37C47.487 12.292 47.109 11.928 46.367 11.928C45.513 11.928 45.023 12.362 45.023 13.356V17.5H42.783V7.49H45.023V11.368H45.051C45.429 10.71 46.129 10.108 47.403 10.108ZM54.4178 17.738C52.0518 17.738 50.6098 16.198 50.6098 13.93C50.6098 11.676 52.0518 10.094 54.4598 10.094C56.8258 10.094 58.2678 11.634 58.2678 13.888C58.2678 16.156 56.8258 17.738 54.4178 17.738ZM54.4458 16.058C55.4398 16.058 55.9998 15.302 55.9998 13.916C55.9998 12.53 55.4398 11.774 54.4458 11.774C53.4378 11.774 52.8778 12.53 52.8778 13.916C52.8778 15.302 53.4378 16.058 54.4458 16.058ZM63.5292 10.108C65.4332 10.108 66.6512 11.564 66.6512 13.916C66.6512 16.268 65.4332 17.724 63.5292 17.724C62.4932 17.724 61.7372 17.164 61.4572 16.786H61.4292V19.978H59.1892V10.332H61.4292V11.046H61.4572C61.7372 10.668 62.4932 10.108 63.5292 10.108ZM62.9132 16.044C63.8232 16.044 64.3552 15.316 64.3552 13.916C64.3552 12.516 63.8232 11.788 62.9132 11.788C62.0032 11.788 61.4712 12.516 61.4712 13.916C61.4712 15.316 62.0032 16.044 62.9132 16.044ZM71.9374 10.108C73.8414 10.108 75.0594 11.564 75.0594 13.916C75.0594 16.268 73.8414 17.724 71.9374 17.724C70.9014 17.724 70.1454 17.164 69.8654 16.786H69.8374V19.978H67.5974V10.332H69.8374V11.046H69.8654C70.1454 10.668 70.9014 10.108 71.9374 10.108ZM71.3214 16.044C72.2314 16.044 72.7634 15.316 72.7634 13.916C72.7634 12.516 72.2314 11.788 71.3214 11.788C70.4114 11.788 69.8794 12.516 69.8794 13.916C69.8794 15.316 70.4114 16.044 71.3214 16.044ZM78.2456 9.478H76.0056V7.49H78.2456V9.478ZM78.2456 17.5H76.0056V10.332H78.2456V17.5ZM84.0983 10.108C85.4843 10.108 86.4223 11.018 86.4223 12.656V17.5H84.1823V13.37C84.1823 12.292 83.8043 11.928 83.0623 11.928C82.2083 11.928 81.7183 12.362 81.7183 13.356V17.5H79.4783V10.332H81.7183V11.368H81.7463C82.1243 10.71 82.8243 10.108 84.0983 10.108ZM92.3311 11.046V10.332H94.5711V16.646C94.5711 19.208 93.1851 20.062 90.9871 20.062C88.7611 20.062 87.7251 18.886 87.4731 17.738H89.7411C89.8811 18.13 90.2031 18.452 90.9871 18.452C91.9951 18.452 92.3311 17.92 92.3311 16.646V16.226H92.3031C92.0231 16.604 91.3931 17.164 90.3431 17.164C88.5091 17.164 87.3331 15.708 87.3331 13.636C87.3331 11.564 88.5091 10.108 90.3431 10.108C91.3931 10.108 92.0231 10.668 92.3031 11.046H92.3311ZM90.9591 15.484C91.8691 15.484 92.2891 14.798 92.2891 13.636C92.2891 12.474 91.8691 11.788 90.9591 11.788C90.0491 11.788 89.6291 12.474 89.6291 13.636C89.6291 14.798 90.0491 15.484 90.9591 15.484ZM101.843 17.738C99.5749 17.738 98.1469 16.156 98.1469 13.916C98.1469 11.69 99.5749 10.094 101.787 10.094C103.859 10.094 105.119 11.326 105.301 13.006H103.047C102.977 12.418 102.725 11.774 101.829 11.774C100.905 11.774 100.443 12.572 100.443 13.916C100.443 15.26 100.891 16.058 101.829 16.058C102.711 16.058 102.977 15.456 103.047 14.798H105.301C105.189 16.506 103.901 17.738 101.843 17.738ZM108.126 17.724C106.726 17.724 105.844 16.898 105.844 15.624C105.844 14.14 107.062 13.566 108.588 13.244C109.372 13.076 110.478 12.964 110.478 12.25C110.478 11.858 110.17 11.606 109.526 11.606C108.7 11.606 108.322 11.942 108.252 12.642H106.124C106.194 11.27 107.202 10.094 109.624 10.094C111.57 10.094 112.648 10.878 112.648 13.076V15.848C112.648 16.226 112.69 16.394 112.914 16.394C112.97 16.394 113.012 16.394 113.096 16.38V17.444C112.648 17.528 112.186 17.57 111.864 17.57C110.968 17.57 110.632 17.234 110.52 16.632H110.492C109.988 17.262 109.162 17.724 108.126 17.724ZM109.064 16.184C109.96 16.184 110.478 15.428 110.478 14.602V14C110.184 14.112 109.848 14.196 109.26 14.336C108.434 14.532 108.14 14.882 108.14 15.386C108.14 15.932 108.49 16.184 109.064 16.184ZM118.059 10.276C118.255 10.276 118.423 10.276 118.675 10.332V12.292C118.493 12.264 118.367 12.25 118.213 12.25C117.205 12.25 116.281 12.88 116.281 14.168V17.5H114.041V10.332H116.281V11.508H116.309C116.659 10.752 117.275 10.276 118.059 10.276ZM122.97 15.96C123.18 15.96 123.306 15.946 123.572 15.904V17.486C123.096 17.598 122.69 17.64 122.242 17.64C120.674 17.64 120.002 16.926 120.002 15.176V12.012H119.008V10.332H120.002V8.33H122.242V10.332H123.488V12.012H122.242V15.12C122.242 15.89 122.536 15.96 122.97 15.96Z" fill="#21213E"/>
<line x1="133" y1="11.5" x2="197" y2="11.5" stroke="#D0D0DB" stroke-width="2"/>
<rect x="206" width="25" height="25" rx="12.5" fill="#21213E" fill-opacity="0.16"/>
<path d="M222.281 18H215.407C215.407 16.18 216.513 14.92 218.361 13.772C219.999 12.778 220.825 12.372 220.825 11.084C220.825 10.286 220.503 9.432 219.187 9.432C217.675 9.432 217.199 10.412 217.199 11.742H215.659C215.659 9.684 216.779 8.13 219.229 8.13C220.979 8.13 222.393 9.18 222.393 11.028C222.393 12.904 220.867 13.87 219.481 14.724C218.529 15.284 217.633 15.816 217.353 16.67V16.698H222.281V18Z" fill="#21213E"/>
<path d="M244.558 17.682C241.842 17.682 239.966 15.54 239.966 12.502C239.966 9.478 241.828 7.308 244.572 7.308C246.91 7.308 248.436 8.806 248.688 10.682H247.624C247.428 9.562 246.602 8.204 244.558 8.204C242.136 8.204 241.03 10.262 241.03 12.502C241.03 14.742 242.15 16.786 244.558 16.786C246.672 16.786 247.554 15.33 247.666 13.944H248.73C248.492 16.128 246.938 17.682 244.558 17.682ZM253.396 10.192C254.67 10.192 255.734 10.906 255.734 12.488V17.5H254.824V12.684C254.824 11.774 254.404 10.99 253.172 10.99C251.814 10.99 250.918 11.942 250.918 12.992V17.5H250.008V7.49H250.918V11.382H250.946C251.352 10.794 252.122 10.192 253.396 10.192ZM263.607 13.608C263.607 13.804 263.607 14 263.593 14.112H257.937C257.951 15.554 258.721 16.912 260.401 16.912C261.871 16.912 262.445 15.904 262.585 15.316H263.509C263.159 16.618 262.179 17.696 260.387 17.696C258.203 17.696 256.985 16.1 256.985 13.93C256.985 11.648 258.329 10.178 260.387 10.178C262.445 10.178 263.607 11.62 263.607 13.608ZM257.937 13.314H262.641C262.641 12.04 261.815 10.962 260.345 10.962C258.959 10.962 258.007 11.984 257.937 13.314ZM267.907 17.682C265.863 17.682 264.491 16.17 264.491 13.93C264.491 11.704 265.863 10.192 267.907 10.192C269.643 10.192 270.819 11.354 270.973 12.866H270.021C269.965 12.068 269.391 10.99 267.907 10.99C266.157 10.99 265.443 12.474 265.443 13.93C265.443 15.4 266.157 16.898 267.907 16.898C269.405 16.898 269.965 15.82 270.021 14.952H270.973C270.875 16.492 269.643 17.682 267.907 17.682ZM278.119 17.5H277.041L274.339 13.552L273.107 14.7V17.5H272.197V7.49H273.107V13.72L276.649 10.36H277.769L274.955 12.978L278.119 17.5ZM281.456 17.696C279.314 17.696 278.026 16.156 278.026 13.944C278.026 11.718 279.314 10.178 281.456 10.178C283.598 10.178 284.886 11.718 284.886 13.944C284.886 16.156 283.598 17.696 281.456 17.696ZM281.456 16.898C283.122 16.898 283.934 15.582 283.934 13.944C283.934 12.292 283.122 10.976 281.456 10.976C279.79 10.976 278.978 12.292 278.978 13.944C278.978 15.582 279.79 16.898 281.456 16.898ZM290.93 14.868V10.36H291.84V17.5H290.93V16.492H290.902C290.496 17.08 289.726 17.668 288.452 17.668C287.178 17.668 286.114 16.954 286.114 15.372V10.36H287.024V15.176C287.024 16.086 287.444 16.87 288.676 16.87C290.034 16.87 290.93 15.918 290.93 14.868ZM296.27 10.36V11.158H294.828V15.666C294.828 16.548 295.024 16.758 295.724 16.758C295.948 16.758 296.06 16.744 296.27 16.73V17.5C295.99 17.542 295.822 17.556 295.598 17.556C294.562 17.556 293.918 17.206 293.918 15.652V11.158H292.868V10.36H293.918V7.98H294.828V10.36H296.27ZM304.32 17.5H300.736V7.49H304.362C307.162 7.49 308.716 9.422 308.716 12.516C308.716 15.61 307.12 17.5 304.32 17.5ZM301.758 16.604H304.32C306.826 16.604 307.652 14.728 307.652 12.516C307.652 10.29 306.868 8.386 304.348 8.386H301.758V16.604ZM316.367 13.608C316.367 13.804 316.367 14 316.353 14.112H310.697C310.711 15.554 311.481 16.912 313.161 16.912C314.631 16.912 315.205 15.904 315.345 15.316H316.269C315.919 16.618 314.939 17.696 313.147 17.696C310.963 17.696 309.745 16.1 309.745 13.93C309.745 11.648 311.089 10.178 313.147 10.178C315.205 10.178 316.367 11.62 316.367 13.608ZM310.697 13.314H315.401C315.401 12.04 314.575 10.962 313.105 10.962C311.719 10.962 310.767 11.984 310.697 13.314ZM320.291 10.36V11.158H318.849V15.666C318.849 16.548 319.045 16.758 319.745 16.758C319.969 16.758 320.081 16.744 320.291 16.73V17.5C320.011 17.542 319.843 17.556 319.619 17.556C318.583 17.556 317.939 17.206 317.939 15.652V11.158H316.889V10.36H317.939V7.98H318.849V10.36H320.291ZM323.431 17.682C322.003 17.682 321.093 16.884 321.093 15.694C321.093 14.154 322.185 13.664 324.033 13.342C325.209 13.132 325.965 13.048 325.965 12.194C325.965 11.466 325.489 10.976 324.341 10.976C322.955 10.976 322.465 11.466 322.395 12.516H321.429C321.499 11.256 322.297 10.178 324.369 10.178C325.685 10.178 326.847 10.738 326.847 12.446V16.016C326.847 16.59 326.931 16.856 327.253 16.856C327.309 16.856 327.365 16.856 327.449 16.842V17.5C327.295 17.528 327.141 17.556 326.973 17.556C326.371 17.556 326.021 17.318 325.965 16.422H325.937C325.447 17.234 324.593 17.682 323.431 17.682ZM323.543 16.884C324.999 16.884 325.965 16.114 325.965 14.826V13.496C325.755 13.79 324.999 13.958 324.145 14.098C322.759 14.35 322.045 14.7 322.045 15.61C322.045 16.436 322.507 16.884 323.543 16.884ZM329.698 8.932H328.522V7.756H329.698V8.932ZM329.572 17.5H328.662V10.36H329.572V17.5ZM332.156 17.5H331.246V7.49H332.156V17.5ZM336.462 17.682C334.46 17.682 333.368 16.59 333.326 15.162H334.278C334.334 16.142 334.978 16.884 336.476 16.884C337.834 16.884 338.296 16.254 338.296 15.554C338.296 14.504 337.232 14.392 336.238 14.154C334.922 13.818 333.592 13.496 333.592 12.11C333.592 10.948 334.516 10.192 336.126 10.192C337.988 10.192 338.856 11.186 338.982 12.362H338.03C337.904 11.732 337.526 10.99 336.14 10.99C335.118 10.99 334.544 11.382 334.544 12.054C334.544 12.95 335.51 13.076 336.588 13.342C337.932 13.664 339.262 14.042 339.262 15.526C339.262 16.828 338.226 17.682 336.462 17.682Z" fill="#21213E" fill-opacity="0.72"/>
<line x1="349" y1="11.5" x2="413" y2="11.5" stroke="#D0D0DB" stroke-width="2"/>
<rect x="422" width="25" height="25" rx="12.5" fill="#21213E" fill-opacity="0.16"/>
<path d="M435.629 18.196C433.137 18.196 431.737 16.908 431.737 14.696H433.277C433.277 16.026 433.837 16.894 435.531 16.894C437.057 16.894 437.575 16.278 437.575 15.242C437.575 13.912 436.623 13.59 435.643 13.59H434.733V12.344H435.587C436.553 12.344 437.239 11.91 437.239 10.86C437.239 10.104 436.777 9.432 435.587 9.432C433.949 9.432 433.543 10.3 433.543 11.238H432.003C432.003 9.446 433.221 8.13 435.601 8.13C437.323 8.13 438.807 9.082 438.807 10.79C438.807 11.826 438.275 12.47 437.351 12.862V12.89C438.625 13.296 439.143 14.136 439.143 15.27C439.143 17.146 437.757 18.196 435.629 18.196Z" fill="#21213E"/>
<path d="M457.373 17.5H456.351V7.49H463.043V8.386H457.373V11.928H462.049V12.824H457.373V17.5ZM465.106 8.932H463.93V7.756H465.106V8.932ZM464.98 17.5H464.07V10.36H464.98V17.5ZM470.042 10.192C471.316 10.192 472.38 10.906 472.38 12.488V17.5H471.47V12.684C471.47 11.774 471.05 10.99 469.818 10.99C468.46 10.99 467.564 11.942 467.564 12.992V17.5H466.654V10.36H467.564V11.382H467.592C467.998 10.794 468.768 10.192 470.042 10.192ZM475.046 8.932H473.87V7.756H475.046V8.932ZM474.92 17.5H474.01V10.36H474.92V17.5ZM479.226 17.682C477.224 17.682 476.132 16.59 476.09 15.162H477.042C477.098 16.142 477.742 16.884 479.24 16.884C480.598 16.884 481.06 16.254 481.06 15.554C481.06 14.504 479.996 14.392 479.002 14.154C477.686 13.818 476.356 13.496 476.356 12.11C476.356 10.948 477.28 10.192 478.89 10.192C480.752 10.192 481.62 11.186 481.746 12.362H480.794C480.668 11.732 480.29 10.99 478.904 10.99C477.882 10.99 477.308 11.382 477.308 12.054C477.308 12.95 478.274 13.076 479.352 13.342C480.696 13.664 482.026 14.042 482.026 15.526C482.026 16.828 480.99 17.682 479.226 17.682ZM486.585 10.192C487.859 10.192 488.923 10.906 488.923 12.488V17.5H488.013V12.684C488.013 11.774 487.593 10.99 486.361 10.99C485.003 10.99 484.107 11.942 484.107 12.992V17.5H483.197V7.49H484.107V11.382H484.135C484.541 10.794 485.311 10.192 486.585 10.192Z" fill="#21213E" fill-opacity="0.72"/>
</svg>
