<svg width="60" height="16" viewBox="0 0 60 16" fill="none" xmlns="http://www.w3.org/2000/svg">
<path d="M8.42 15.5C7.56667 15.5 6.81333 15.3133 6.16 14.94C5.52 14.5533 5.01333 14.04 4.64 13.4C4.28 12.76 4.1 12.0467 4.1 11.26V4.3H0.3V1.5H11.24V4.3H7.46V11.56C7.46 11.8667 7.56667 12.1333 7.78 12.36C7.99333 12.5867 8.26 12.7 8.58 12.7H9.68V15.5H8.42ZM11.7069 15.5V5.24H14.8269V15.5H11.7069ZM13.2669 4.08C12.7735 4.08 12.3469 3.9 11.9869 3.54C11.6269 3.18 11.4469 2.75333 11.4469 2.26C11.4469 1.76667 11.6269 1.34 11.9869 0.98C12.3469 0.606666 12.7735 0.42 13.2669 0.42C13.7602 0.42 14.1869 0.606666 14.5469 0.98C14.9069 1.34 15.0869 1.76667 15.0869 2.26C15.0869 2.75333 14.9069 3.18 14.5469 3.54C14.1869 3.9 13.7602 4.08 13.2669 4.08ZM17.0975 15.5V9.44C17.0975 8.6 17.2908 7.84667 17.6775 7.18C18.0775 6.5 18.6442 5.96667 19.3775 5.58C20.1108 5.19333 20.9842 5 21.9975 5C22.5042 5 22.9708 5.06 23.3975 5.18C23.8242 5.28667 24.2108 5.44 24.5575 5.64C24.9175 5.82667 25.2242 6.05333 25.4775 6.32H25.5175C25.7842 6.05333 26.0908 5.82667 26.4375 5.64C26.7975 5.44 27.1908 5.28667 27.6175 5.18C28.0575 5.06 28.5308 5 29.0375 5C30.0508 5 30.9242 5.19333 31.6575 5.58C32.3908 5.96667 32.9575 6.5 33.3575 7.18C33.7575 7.84667 33.9575 8.6 33.9575 9.44V15.5H30.8375V9.54C30.8375 9.20667 30.7508 8.90667 30.5775 8.64C30.4175 8.36 30.1975 8.13333 29.9175 7.96C29.6375 7.78667 29.3175 7.7 28.9575 7.7C28.5975 7.7 28.2708 7.78667 27.9775 7.96C27.6975 8.13333 27.4775 8.36 27.3175 8.64C27.1575 8.90667 27.0775 9.20667 27.0775 9.54V15.5H23.9775V9.54C23.9775 9.20667 23.8908 8.90667 23.7175 8.64C23.5575 8.36 23.3308 8.13333 23.0375 7.96C22.7575 7.78667 22.4375 7.7 22.0775 7.7C21.7175 7.7 21.3908 7.78667 21.0975 7.96C20.8175 8.13333 20.5975 8.36 20.4375 8.64C20.2775 8.90667 20.1975 9.20667 20.1975 9.54V15.5H17.0975ZM41.6777 15.74C40.571 15.74 39.6043 15.5133 38.7777 15.06C37.951 14.6067 37.311 13.96 36.8577 13.12C36.4043 12.28 36.1777 11.3 36.1777 10.18V0.9H39.2777V6.36H39.3377C39.5377 6.08 39.7843 5.84 40.0777 5.64C40.3843 5.42667 40.7177 5.26667 41.0777 5.16C41.451 5.05333 41.8443 5 42.2577 5C43.231 5 44.0843 5.22 44.8177 5.66C45.551 6.1 46.1243 6.70667 46.5377 7.48C46.9643 8.25333 47.1777 9.16 47.1777 10.2C47.1777 11 47.051 11.74 46.7977 12.42C46.5443 13.1 46.1777 13.6933 45.6977 14.2C45.231 14.6933 44.6577 15.0733 43.9777 15.34C43.311 15.6067 42.5443 15.74 41.6777 15.74ZM41.6777 13.06C42.1577 13.06 42.571 12.9467 42.9177 12.72C43.2643 12.48 43.531 12.16 43.7177 11.76C43.9177 11.3467 44.0177 10.8867 44.0177 10.38C44.0177 9.87333 43.9177 9.42 43.7177 9.02C43.531 8.62 43.2643 8.30667 42.9177 8.08C42.571 7.84 42.1577 7.72 41.6777 7.72C41.1977 7.72 40.7777 7.84 40.4177 8.08C40.071 8.30667 39.8043 8.62 39.6177 9.02C39.431 9.42 39.3377 9.87333 39.3377 10.38C39.3377 10.8867 39.431 11.3467 39.6177 11.76C39.8043 12.16 40.071 12.48 40.4177 12.72C40.7777 12.9467 41.1977 13.06 41.6777 13.06ZM54.1316 15.74C53.0782 15.74 52.1649 15.54 51.3916 15.14C50.6316 14.7267 50.0449 14.1733 49.6316 13.48C49.2182 12.7733 49.0116 11.9933 49.0116 11.14V5.24H52.1116V11.06C52.1116 11.42 52.1982 11.7533 52.3716 12.06C52.5449 12.3533 52.7782 12.5933 53.0716 12.78C53.3782 12.9533 53.7249 13.04 54.1116 13.04C54.4849 13.04 54.8182 12.9533 55.1116 12.78C55.4182 12.5933 55.6582 12.3533 55.8316 12.06C56.0049 11.7533 56.0916 11.42 56.0916 11.06V5.24H59.1916V11.14C59.1916 11.9933 58.9916 12.7733 58.5916 13.48C58.1916 14.1733 57.6116 14.7267 56.8516 15.14C56.1049 15.54 55.1982 15.74 54.1316 15.74Z" fill="white"/>
</svg>
