<svg width="57" height="17" viewBox="0 0 57 17" fill="none" xmlns="http://www.w3.org/2000/svg">
<path d="M5.72 16.24C4.61333 16.24 3.63333 16.02 2.78 15.58C1.94 15.1267 1.28 14.48 0.8 13.64C0.32 12.8 0.08 11.8067 0.08 10.66V2H3.38V10.78C3.38 11.26 3.47333 11.6933 3.66 12.08C3.84667 12.4667 4.11333 12.7733 4.46 13C4.82 13.2267 5.24 13.34 5.72 13.34C6.2 13.34 6.61333 13.2267 6.96 13C7.30667 12.7733 7.57333 12.4667 7.76 12.08C7.96 11.6933 8.06 11.26 8.06 10.78V2H11.36V10.78C11.36 11.26 11.4533 11.6933 11.64 12.08C11.8267 12.4667 12.0933 12.7733 12.44 13C12.8 13.2267 13.22 13.34 13.7 13.34C14.18 13.34 14.5933 13.2267 14.94 13C15.3 12.7733 15.5733 12.4667 15.76 12.08C15.9467 11.6933 16.04 11.26 16.04 10.78V2H19.34V10.66C19.34 11.8067 19.1 12.8 18.62 13.64C18.14 14.48 17.4733 15.1267 16.62 15.58C15.78 16.02 14.8067 16.24 13.7 16.24C13.1533 16.24 12.6333 16.1733 12.14 16.04C11.66 15.92 11.2133 15.7333 10.8 15.48C10.4 15.2267 10.0333 14.92 9.7 14.56C9.38 14.92 9.01333 15.2267 8.6 15.48C8.18667 15.72 7.74 15.9067 7.26 16.04C6.78 16.1733 6.26667 16.24 5.72 16.24ZM21.5058 16V8.76C21.5058 7.82667 21.7724 7.09333 22.3058 6.56C22.8391 6.02667 23.5791 5.76 24.5258 5.76H27.5058V8.28H25.2858C25.0991 8.28 24.9391 8.34667 24.8058 8.48C24.6724 8.6 24.6058 8.76 24.6058 8.96V16H21.5058ZM28.8905 16V5.74H32.0105V16H28.8905ZM30.4505 4.58C29.9571 4.58 29.5305 4.4 29.1705 4.04C28.8105 3.68 28.6305 3.25333 28.6305 2.76C28.6305 2.26667 28.8105 1.84 29.1705 1.48C29.5305 1.10667 29.9571 0.92 30.4505 0.92C30.9438 0.92 31.3705 1.10667 31.7305 1.48C32.0905 1.84 32.2705 2.26667 32.2705 2.76C32.2705 3.25333 32.0905 3.68 31.7305 4.04C31.3705 4.4 30.9438 4.58 30.4505 4.58ZM34.3011 16V13.54H39.2411C39.3744 13.54 39.4944 13.5133 39.6011 13.46C39.7078 13.3933 39.7944 13.3067 39.8611 13.2C39.9278 13.0933 39.9611 12.98 39.9611 12.86C39.9611 12.7267 39.9278 12.6067 39.8611 12.5C39.7944 12.3933 39.7078 12.3133 39.6011 12.26C39.4944 12.1933 39.3744 12.16 39.2411 12.16H37.4411C36.7744 12.16 36.1678 12.0533 35.6211 11.84C35.0878 11.6133 34.6611 11.2667 34.3411 10.8C34.0344 10.32 33.8811 9.7 33.8811 8.94C33.8811 8.35333 34.0211 7.82 34.3011 7.34C34.5944 6.86 34.9878 6.47333 35.4811 6.18C35.9878 5.88667 36.5411 5.74 37.1411 5.74H42.0811V8.22H37.6211C37.4344 8.22 37.2744 8.28 37.1411 8.4C37.0211 8.52 36.9611 8.66667 36.9611 8.84C36.9611 9.02667 37.0211 9.18667 37.1411 9.32C37.2744 9.44 37.4344 9.5 37.6211 9.5H39.3811C40.1278 9.5 40.7678 9.61333 41.3011 9.84C41.8478 10.0533 42.2678 10.4 42.5611 10.88C42.8678 11.36 43.0211 11.98 43.0211 12.74C43.0211 13.34 42.8678 13.8867 42.5611 14.38C42.2678 14.8733 41.8678 15.2667 41.3611 15.56C40.8678 15.8533 40.3078 16 39.6811 16H34.3011ZM48.3536 16C47.4069 16 46.6669 15.7333 46.1336 15.2C45.6003 14.6533 45.3336 13.92 45.3336 13V3.24H48.4536V12.82C48.4536 12.98 48.5069 13.12 48.6136 13.24C48.7336 13.3467 48.8736 13.4 49.0336 13.4H51.2736V16H48.3536ZM43.6536 8.28V5.74H51.2736V8.28H43.6536ZM54.6878 16.24C54.1545 16.24 53.6945 16.0533 53.3078 15.68C52.9345 15.2933 52.7478 14.84 52.7478 14.32C52.7478 13.7867 52.9345 13.3333 53.3078 12.96C53.6945 12.5733 54.1545 12.38 54.6878 12.38C55.2078 12.38 55.6545 12.5733 56.0278 12.96C56.4145 13.3333 56.6078 13.7867 56.6078 14.32C56.6078 14.6667 56.5211 14.9867 56.3478 15.28C56.1745 15.5733 55.9411 15.8067 55.6478 15.98C55.3678 16.1533 55.0478 16.24 54.6878 16.24Z" fill="white"/>
</svg>
