<svg width="199" height="38" viewBox="0 0 199 38" fill="none" xmlns="http://www.w3.org/2000/svg">
<g clip-path="url(#clip0_205_532)">
<path d="M8.89133 37.811V35.296C8.89133 34.3316 8.30433 33.703 7.29819 33.703C6.79522 33.703 6.25023 33.8707 5.87291 34.4157C5.5796 33.9545 5.16045 33.703 4.53164 33.703C4.1123 33.703 3.69335 33.8287 3.35784 34.2898V33.7868H2.47754V37.811H3.35784V35.5893C3.35784 34.8768 3.73517 34.5413 4.32216 34.5413C4.90877 34.5413 5.20246 34.9186 5.20246 35.5893V37.811H6.08276V35.5893C6.08276 34.8768 6.50172 34.5413 7.0467 34.5413C7.6337 34.5413 7.92701 34.9186 7.92701 35.5893V37.811H8.89133ZM21.928 33.7868H20.5029V32.5712H19.6226V33.7868H18.8261V34.5831H19.6224V36.4278C19.6224 37.3501 19.9997 37.8949 21.0059 37.8949C21.3832 37.8949 21.8022 37.7692 22.0958 37.6016L21.8442 36.8469C21.5927 37.0146 21.2994 37.0566 21.0897 37.0566C20.6706 37.0566 20.5029 36.8051 20.5029 36.3857V34.5831H21.928V33.7868ZM29.3897 33.7028C28.8868 33.7028 28.5515 33.9545 28.3418 34.2898V33.7868H27.4615V37.811H28.3418V35.5475C28.3418 34.8768 28.6351 34.4995 29.1801 34.4995C29.3477 34.4995 29.5574 34.5415 29.7251 34.5833L29.9766 33.745C29.8089 33.703 29.5574 33.703 29.3897 33.703M18.1135 34.1224C17.6941 33.8289 17.1073 33.7032 16.4785 33.7032C15.4726 33.7032 14.8019 34.2062 14.8019 35.0027C14.8019 35.6735 15.3049 36.0506 16.1852 36.1765L16.6044 36.2185C17.0655 36.3021 17.317 36.4279 17.317 36.6376C17.317 36.9309 16.9817 37.1406 16.3947 37.1406C15.8077 37.1406 15.3467 36.9309 15.0532 36.7214L14.6341 37.3921C15.0953 37.7274 15.7241 37.8951 16.3527 37.8951C17.5265 37.8951 18.1973 37.3503 18.1973 36.5956C18.1973 35.883 17.6523 35.5056 16.8138 35.38L16.3947 35.338C16.0174 35.296 15.7241 35.2123 15.7241 34.9608C15.7241 34.6673 16.0174 34.4997 16.4785 34.4997C16.9817 34.4997 17.4847 34.7092 17.7362 34.835L18.1135 34.1224ZM41.5045 33.7032C41.0013 33.7032 40.666 33.9547 40.4563 34.29V33.787H39.576V37.8112H40.4563V35.5476C40.4563 34.877 40.7498 34.4997 41.2946 34.4997C41.4625 34.4997 41.6721 34.5417 41.8398 34.5835L42.0913 33.7452C41.9236 33.7032 41.6721 33.7032 41.5045 33.7032ZM30.27 35.7991C30.27 37.0147 31.1083 37.8951 32.408 37.8951C32.9948 37.8951 33.4139 37.7694 33.8331 37.4341L33.4139 36.7214C33.0786 36.9729 32.7433 37.0986 32.366 37.0986C31.6533 37.0986 31.1503 36.5956 31.1503 35.7991C31.1503 35.0447 31.6533 34.5415 32.366 34.4997C32.7433 34.4997 33.0786 34.6253 33.4139 34.877L33.8331 34.1644C33.4139 33.8289 32.9948 33.7032 32.408 33.7032C31.1083 33.7032 30.27 34.5835 30.27 35.7991ZM38.4024 35.7991V33.787H37.5221V34.29C37.2286 33.9129 36.8095 33.7032 36.2645 33.7032C35.1327 33.7032 34.2524 34.5835 34.2524 35.7991C34.2524 37.0147 35.1327 37.8951 36.2645 37.8951C36.8513 37.8951 37.2706 37.6856 37.5221 37.3082V37.8112H38.4024V35.7991ZM35.1745 35.7991C35.1745 35.0865 35.6357 34.4997 36.3901 34.4997C37.1028 34.4997 37.606 35.0447 37.606 35.7991C37.606 36.5118 37.1028 37.0986 36.3901 37.0986C35.6357 37.0566 35.1745 36.5118 35.1745 35.7991ZM24.6529 33.7032C23.4791 33.7032 22.6406 34.5415 22.6406 35.7991C22.6406 37.0568 23.4789 37.8951 24.6947 37.8951C25.2815 37.8951 25.8685 37.7274 26.3297 37.3503L25.9104 36.7214C25.575 36.9729 25.1559 37.1406 24.7368 37.1406C24.1918 37.1406 23.6468 36.8891 23.5209 36.1763H26.4974V35.8411C26.5394 34.5415 25.7849 33.7032 24.6529 33.7032ZM24.6527 34.4577C25.1975 34.4577 25.575 34.7932 25.6587 35.422H23.5628C23.6466 34.877 24.0239 34.4577 24.6527 34.4577ZM46.4926 35.7991V32.1941H45.6123V34.29C45.3188 33.9129 44.8997 33.7032 44.3547 33.7032C43.2229 33.7032 42.3426 34.5835 42.3426 35.7991C42.3426 37.0147 43.2229 37.8951 44.3547 37.8951C44.9417 37.8951 45.3608 37.6856 45.6123 37.3082V37.8112H46.4926V35.7991ZM43.2649 35.7991C43.2649 35.0865 43.7259 34.4997 44.4805 34.4997C45.1932 34.4997 45.6961 35.0447 45.6961 35.7991C45.6961 36.5118 45.1932 37.0986 44.4805 37.0986C43.7259 37.0566 43.2649 36.5118 43.2649 35.7991ZM13.8374 35.7991V33.787H12.9571V34.29C12.6636 33.9129 12.2445 33.7032 11.6995 33.7032C10.5677 33.7032 9.68742 34.5835 9.68742 35.7991C9.68742 37.0147 10.5677 37.8951 11.6995 37.8951C12.2865 37.8951 12.7056 37.6856 12.9571 37.3082V37.8112H13.8374V35.7991ZM10.5677 35.7991C10.5677 35.0865 11.0289 34.4997 11.7833 34.4997C12.496 34.4997 12.9991 35.0447 12.9991 35.7991C12.9991 36.5118 12.496 37.0986 11.7833 37.0986C11.0289 37.0566 10.5677 36.5118 10.5677 35.7991Z" fill="black"/>
<path d="M17.8203 3.22778H31.0248V26.9541H17.8203V3.22778Z" fill="#FF5F00"/>
<path d="M18.6571 15.091C18.6571 10.2703 20.9207 5.99445 24.3999 3.22771C21.843 1.21562 18.6153 0 15.0941 0C6.75184 0 0.00292969 6.74892 0.00292969 15.091C0.00292969 23.433 6.75184 30.1819 15.0939 30.1819C18.6151 30.1819 21.8428 28.9663 24.3999 26.954C20.9207 24.2293 18.6571 19.9116 18.6571 15.091Z" fill="#EB001B"/>
<path d="M48.8403 15.091C48.8403 23.4328 42.0914 30.1819 33.7494 30.1819C30.2281 30.1819 27.0004 28.9663 24.4434 26.954C27.9646 24.1875 30.1863 19.9116 30.1863 15.091C30.1863 10.2703 27.9226 5.99445 24.4434 3.22771C27.0002 1.21562 30.2281 0 33.7494 0C42.0914 0 48.8403 6.79093 48.8403 15.091Z" fill="#F79E1B"/>
</g>
<g clip-path="url(#clip1_205_532)">
<path d="M69.1736 1.10205C67.9146 1.10205 66.8936 2.12281 66.8936 3.38205V34.6181C66.8936 35.8772 67.9151 36.8981 69.1736 36.8981H121.614C122.873 36.8981 123.894 35.8773 123.894 34.6181V3.38205C123.894 2.12286 122.872 1.10205 121.614 1.10205H69.1736ZM100.937 11.7699C102.324 11.7699 103.436 12.0764 104.145 12.3613L103.66 15.4091L103.34 15.2469C102.679 14.962 101.831 14.6878 100.661 14.7072C99.2599 14.7072 98.6123 15.3321 98.6123 15.9168C98.6041 16.5755 99.369 17.01 100.62 17.6606C102.684 18.6643 103.638 19.8814 103.625 21.4813C103.597 24.4007 101.155 26.2872 97.3939 26.2872C95.7892 26.2695 94.2432 25.9298 93.4074 25.5372L93.9098 22.388L94.3711 22.6124C95.5463 23.1375 96.3073 23.3499 97.7394 23.3499C98.7679 23.3499 99.8718 22.9193 99.8805 21.9765C99.8872 21.3609 99.4191 20.922 98.0262 20.2327C96.6689 19.5598 94.8696 18.4328 94.8895 16.4119C94.9107 13.6781 97.4011 11.7699 100.937 11.7699ZM71.9345 12.2171H77.7111C78.489 12.2465 79.117 12.4969 79.3338 13.341L80.5789 19.7678C80.5791 19.7684 80.5787 19.7707 80.5789 19.7713L80.9529 21.6969L84.4602 12.2171H88.2543L82.6148 26.093L78.8243 26.0966L75.8069 14.8996C77.6023 15.8507 79.1308 16.9512 80.016 18.4657C79.7878 17.9865 79.4871 17.4455 79.1023 16.9124C78.6541 16.2916 77.6863 15.49 77.2818 15.149C75.8722 13.9607 73.9578 13.001 71.8899 12.4932L71.9345 12.2171ZM89.763 12.2331H93.4734L91.1524 26.0877H87.4421L89.763 12.2331ZM110.719 12.2331H113.53L116.473 26.0877H113.099C113.099 26.0877 112.764 24.496 112.656 24.0107C112.125 24.0107 108.417 24.0054 107.999 24.0054C107.858 24.3805 107.234 26.0876 107.234 26.0876H103.416L108.815 13.3838C109.198 12.481 109.849 12.2331 110.719 12.2331ZM110.996 15.9594C110.813 16.4748 110.495 17.307 110.516 17.2704C110.516 17.2704 109.374 20.3165 109.075 21.1073L112.077 21.1055C111.798 19.7844 111.519 18.4633 111.24 17.1423L110.996 15.9596V15.9594Z" fill="#1434CB"/>
</g>
<g clip-path="url(#clip2_205_532)">
<path d="M195.094 38H145.694C144.686 38 143.719 37.5996 143.007 36.887C142.294 36.1744 141.894 35.2078 141.894 34.2V3.8C141.894 2.79218 142.294 1.82563 143.007 1.11299C143.719 0.400356 144.686 0 145.694 0L195.094 0C196.101 0 197.068 0.400356 197.781 1.11299C198.493 1.82563 198.894 2.79218 198.894 3.8V34.2C198.894 35.2078 198.493 36.1744 197.781 36.887C197.068 37.5996 196.101 38 195.094 38ZM164.111 16.3479C164.068 16.3485 164.025 16.3587 163.986 16.3779C163.947 16.3971 163.913 16.4247 163.886 16.4588C163.824 16.5223 163.788 16.6072 163.786 16.6963C163.786 16.7295 163.941 17.2029 164.274 18.1735L164.993 20.273L165.327 21.2515C165.702 22.3493 165.897 22.933 165.914 23.0027C165.177 23.9153 164.511 24.8829 163.921 25.897L163.861 26.0078L163.858 26.0474C163.858 26.2058 163.986 26.3356 164.146 26.3356L164.188 26.3324H164.187H166.115C166.205 26.3319 166.294 26.3085 166.372 26.2644C166.45 26.2204 166.516 26.1572 166.563 26.0807L166.565 26.0791L172.949 16.8657C172.983 16.8215 173.001 16.7676 173.001 16.7121L173 16.6883V16.6899C172.998 16.601 172.962 16.5162 172.9 16.4524C172.873 16.4185 172.839 16.3909 172.801 16.3718C172.762 16.3526 172.72 16.3423 172.677 16.3416H170.747C170.657 16.3422 170.568 16.3656 170.489 16.4096C170.411 16.4536 170.345 16.5168 170.297 16.5933L170.295 16.5949L167.635 20.4994L166.535 16.7437C166.507 16.6293 166.441 16.5276 166.348 16.4547C166.256 16.3819 166.141 16.342 166.024 16.3416L165.982 16.3432H165.984L164.111 16.3479ZM186.243 16.1722H186.202C185.001 16.1722 183.923 16.6931 183.179 17.5196L183.176 17.5228C182.362 18.3645 181.908 19.49 181.909 20.6609V20.7037V20.7021C181.906 20.748 181.906 20.8034 181.906 20.8573C181.906 21.7075 182.237 22.4818 182.775 23.0565L182.774 23.0549C183.08 23.3532 183.444 23.585 183.844 23.736C184.244 23.8869 184.671 23.9537 185.098 23.9321H185.09C185.624 23.9258 186.13 23.8165 186.593 23.6202L186.567 23.6297C187.034 23.4539 187.43 23.18 187.742 22.8317L187.745 22.8285C187.729 22.9188 187.712 22.9948 187.691 23.0676L187.695 23.0518C187.666 23.1487 187.649 23.2486 187.644 23.3494V23.3526C187.644 23.6186 187.753 23.7532 187.97 23.7532H189.698C189.765 23.7592 189.833 23.7517 189.897 23.731C189.962 23.7104 190.022 23.677 190.073 23.6328C190.124 23.5887 190.166 23.5347 190.197 23.4741C190.227 23.4134 190.244 23.3473 190.249 23.2798V23.2782L191.275 16.7437C191.284 16.6945 191.283 16.6436 191.27 16.595C191.257 16.5465 191.233 16.5015 191.2 16.4635C191.172 16.4243 191.134 16.3923 191.091 16.3703C191.048 16.3483 191 16.3368 190.952 16.3368H189.047C188.814 16.3368 188.667 16.6139 188.619 17.1633C188.341 16.8057 187.974 16.5264 187.555 16.3524C187.137 16.1784 186.68 16.1158 186.23 16.1706L186.243 16.169V16.1722ZM157.801 16.1722H157.757C156.558 16.1722 155.48 16.6931 154.739 17.5196L154.736 17.5228C153.922 18.3645 153.468 19.49 153.469 20.6609V20.7037V20.7021C153.448 21.1325 153.514 21.5626 153.663 21.9669C153.813 22.3712 154.042 22.7412 154.337 23.0549L154.335 23.0533C154.896 23.598 155.662 23.9337 156.508 23.9337L156.66 23.9305H156.652C157.177 23.9226 157.676 23.8133 158.131 23.6186L158.105 23.6281C158.579 23.4476 158.981 23.1753 159.305 22.8285L159.307 22.8269C159.248 22.9821 159.212 23.1626 159.207 23.3494V23.3526C159.207 23.6186 159.318 23.7532 159.533 23.7532H161.259C161.327 23.7592 161.395 23.7517 161.459 23.731C161.524 23.7104 161.583 23.677 161.635 23.6328C161.686 23.5887 161.728 23.5347 161.758 23.4741C161.788 23.4134 161.806 23.3473 161.81 23.2798V23.2782L162.838 16.7437C162.847 16.6948 162.844 16.6446 162.831 16.5967C162.818 16.5487 162.794 16.5043 162.762 16.4667C162.733 16.4274 162.696 16.3955 162.653 16.3735C162.61 16.3515 162.562 16.34 162.513 16.34H160.609C160.376 16.34 160.229 16.6171 160.183 17.1665C159.901 16.8118 159.534 16.5344 159.116 16.3605C158.697 16.1865 158.242 16.1217 157.792 16.1722L157.804 16.1706L157.801 16.1722ZM193.529 12.6667L193.504 12.6651C193.428 12.6648 193.355 12.693 193.3 12.7441C193.244 12.7951 193.209 12.8653 193.203 12.9406L191.575 23.3573C191.562 23.4075 191.562 23.4602 191.575 23.5104C191.588 23.5606 191.614 23.6066 191.65 23.6439C191.68 23.6794 191.717 23.7078 191.759 23.7272C191.801 23.7467 191.847 23.7566 191.894 23.7563H193.556L193.607 23.7595C193.733 23.7595 193.854 23.7095 193.943 23.6204C194.032 23.5313 194.082 23.4105 194.082 23.2845V23.2813L195.706 13.0451L195.708 13.0103C195.708 12.92 195.678 12.8322 195.624 12.7601V12.7617C195.596 12.7313 195.561 12.7071 195.523 12.6905C195.485 12.6739 195.444 12.6653 195.402 12.6651L195.379 12.6667H193.529ZM175.052 12.6667C174.984 12.6578 174.915 12.6633 174.849 12.6828C174.783 12.7024 174.722 12.7356 174.67 12.7803C174.618 12.825 174.576 12.8801 174.547 12.9421C174.518 13.0041 174.502 13.0716 174.501 13.1401L172.875 23.3558C172.866 23.4043 172.869 23.4541 172.881 23.5017C172.894 23.5493 172.917 23.5935 172.949 23.6313C172.977 23.6706 173.014 23.7027 173.057 23.7248C173.1 23.7468 173.148 23.7582 173.196 23.7579H175.262C175.355 23.7578 175.445 23.7256 175.516 23.6667C175.588 23.6078 175.637 23.5259 175.655 23.4349V23.4317L176.106 20.5279C176.12 20.4008 176.183 20.2841 176.282 20.2033C176.39 20.116 176.521 20.0597 176.659 20.0403H176.664C176.792 20.0165 176.939 20.0038 177.089 20.0023C177.222 20.0023 177.382 20.0102 177.566 20.0276C177.767 20.0507 177.969 20.0612 178.171 20.0592C179.331 20.0611 180.449 19.6239 181.3 18.8353L181.296 18.8385C181.721 18.3886 182.048 17.8565 182.259 17.2751C182.47 16.6938 182.559 16.0754 182.522 15.4581V15.4707C182.556 15.0625 182.486 14.6523 182.318 14.2785C182.151 13.9047 181.891 13.5795 181.564 13.3333L181.558 13.3285C180.802 12.8507 179.917 12.6189 179.024 12.6651H179.034L175.052 12.6667ZM146.58 12.6667C146.514 12.6596 146.447 12.6665 146.384 12.6869C146.32 12.7074 146.262 12.741 146.212 12.7855C146.163 12.83 146.123 12.8844 146.096 12.9452C146.069 13.006 146.055 13.0719 146.055 13.1385V13.1417L144.427 23.3573C144.418 23.4059 144.421 23.4557 144.434 23.5033C144.446 23.5509 144.47 23.5951 144.501 23.6328C144.529 23.6722 144.566 23.7043 144.609 23.7264C144.652 23.7484 144.7 23.7598 144.748 23.7595H146.655C146.723 23.7684 146.792 23.7629 146.857 23.7433C146.923 23.7237 146.984 23.6905 147.036 23.6459C147.088 23.6012 147.13 23.5461 147.159 23.4841C147.188 23.4221 147.204 23.3546 147.206 23.2861L147.657 20.5327C147.671 20.406 147.733 20.2896 147.831 20.2081C147.939 20.1208 148.07 20.0644 148.208 20.045H148.213C148.353 20.0203 148.495 20.0076 148.637 20.007H148.639C148.772 20.007 148.93 20.0149 149.114 20.0323C149.314 20.0554 149.515 20.0659 149.717 20.064C150.925 20.064 152.024 19.6001 152.847 18.8401L152.844 18.8433C153.268 18.3932 153.596 17.8612 153.806 17.2798C154.017 16.6984 154.107 16.0801 154.069 15.4628V15.4755C154.103 15.0673 154.033 14.6571 153.866 14.2833C153.698 13.9095 153.439 13.5842 153.111 13.338L153.105 13.3333C152.353 12.8572 151.472 12.625 150.583 12.6683H150.592L146.58 12.6667ZM186.138 21.9054L186.062 21.907C185.658 21.9074 185.266 21.7643 184.957 21.5033L184.96 21.5048C184.817 21.3732 184.703 21.2133 184.625 21.0354C184.547 20.8574 184.507 20.6652 184.507 20.4709L184.509 20.3997V20.3569C184.509 19.7648 184.748 19.228 185.136 18.8385C185.518 18.4474 186.05 18.2052 186.639 18.2052H186.691H186.688L186.741 18.2036C187.167 18.2036 187.555 18.3603 187.853 18.6184L187.851 18.6168C187.998 18.753 188.116 18.9181 188.196 19.1017C188.276 19.2854 188.317 19.4836 188.317 19.684L188.315 19.76V19.7568V19.7948C188.315 20.3791 188.073 20.9079 187.682 21.2832C187.484 21.48 187.25 21.6359 186.992 21.7422C186.734 21.8484 186.458 21.9028 186.179 21.9023H186.14L186.138 21.9054ZM157.671 21.9054L157.592 21.907C157.177 21.907 156.796 21.755 156.505 21.5033L156.506 21.5048C156.367 21.3717 156.256 21.2117 156.18 21.0345C156.105 20.8574 156.066 20.6667 156.066 20.4741L156.068 20.3997V20.3569C156.068 19.7648 156.307 19.228 156.695 18.8385C157.076 18.4474 157.607 18.2052 158.196 18.2052H158.251H158.248L158.302 18.2036C158.728 18.2036 159.115 18.3603 159.413 18.6184L159.412 18.6168C159.558 18.7529 159.675 18.9177 159.755 19.1011C159.835 19.2845 159.876 19.4824 159.875 19.6824L159.874 19.76V19.7568V19.8123C159.874 20.3965 159.632 20.9222 159.241 21.2974C158.835 21.688 158.293 21.9059 157.73 21.9054H157.671ZM176.524 17.8521L176.95 15.1747C176.954 15.1352 176.965 15.0969 176.983 15.0618C177.001 15.0267 177.026 14.9955 177.056 14.97C177.087 14.9446 177.122 14.9254 177.159 14.9135C177.197 14.9016 177.237 14.8973 177.276 14.9008H177.726L177.823 14.8992C178.096 14.8992 178.367 14.9182 178.632 14.9546L178.602 14.9514C178.847 14.9958 179.061 15.1066 179.229 15.2649C179.324 15.3553 179.4 15.4643 179.452 15.5852C179.504 15.7061 179.531 15.8363 179.531 15.9679L179.529 16.0281V16.0249C179.563 16.2894 179.53 16.5581 179.434 16.807C179.339 17.0558 179.183 17.2772 178.982 17.4515L178.98 17.4531C178.475 17.741 177.897 17.8732 177.317 17.8331H177.327L176.527 17.8584L176.524 17.8521ZM148.057 17.8521L148.483 15.1747C148.487 15.1352 148.498 15.0967 148.516 15.0615C148.534 15.0263 148.559 14.995 148.589 14.9695C148.62 14.9441 148.655 14.9249 148.692 14.913C148.73 14.9012 148.77 14.8971 148.81 14.9008H149.283C149.79 14.8636 150.297 14.9654 150.751 15.1953L150.735 15.1873C151.034 15.3789 151.135 15.7858 151.036 16.4002C151.028 16.6295 150.965 16.8537 150.853 17.0537C150.741 17.2538 150.582 17.4239 150.39 17.5497L150.385 17.5528C149.635 17.8292 148.831 17.931 148.035 17.8505L148.057 17.8521Z" fill="#253B80"/>
</g>
<defs>
<clipPath id="clip0_205_532">
<rect width="48.8933" height="38" fill="white"/>
</clipPath>
<clipPath id="clip1_205_532">
<rect width="57" height="38" fill="white" transform="translate(66.8936)"/>
</clipPath>
<clipPath id="clip2_205_532">
<rect width="57" height="38" fill="white" transform="translate(141.894)"/>
</clipPath>
</defs>
</svg>
