<svg width="16" height="16" viewBox="0 0 16 16" fill="none" xmlns="http://www.w3.org/2000/svg">
<path d="M13.9249 8.49504C13.8047 8.35818 13.7384 8.18223 13.7384 8.00004C13.7384 7.81786 13.8047 7.64191 13.9249 7.50504L14.8849 6.42504C14.9907 6.30704 15.0564 6.15857 15.0726 6.00092C15.0887 5.84328 15.0546 5.68456 14.9749 5.54754L13.4749 2.95254C13.3961 2.81568 13.2761 2.7072 13.132 2.64256C12.9879 2.57792 12.8271 2.56041 12.6724 2.59254L11.2624 2.87754C11.083 2.91461 10.8962 2.88474 10.7373 2.79354C10.5784 2.70235 10.4584 2.55616 10.3999 2.38254L9.94242 1.01004C9.89211 0.861078 9.79625 0.731692 9.66839 0.640175C9.54054 0.548658 9.38715 0.499638 9.22992 0.500043H6.22992C6.06637 0.491507 5.90452 0.536738 5.7691 0.628829C5.63367 0.72092 5.53211 0.854808 5.47992 1.01004L5.05992 2.38254C5.00142 2.55616 4.8814 2.70235 4.72251 2.79354C4.56361 2.88474 4.37683 2.91461 4.19742 2.87754L2.74992 2.59254C2.60334 2.57183 2.4539 2.59496 2.32043 2.65902C2.18697 2.72309 2.07545 2.82521 1.99992 2.95254L0.499922 5.54754C0.418292 5.68303 0.381589 5.84086 0.395059 5.99846C0.40853 6.15606 0.471484 6.30537 0.574922 6.42504L1.52742 7.50504C1.64766 7.64191 1.71397 7.81786 1.71397 8.00004C1.71397 8.18223 1.64766 8.35818 1.52742 8.49504L0.574922 9.57504C0.471484 9.69471 0.40853 9.84402 0.395059 10.0016C0.381589 10.1592 0.418292 10.3171 0.499922 10.4525L1.99992 13.0475C2.07875 13.1844 2.19876 13.2929 2.34286 13.3575C2.48696 13.4222 2.64779 13.4397 2.80242 13.4075L4.21242 13.1225C4.39183 13.0855 4.57861 13.1154 4.73751 13.2065C4.8964 13.2977 5.01642 13.4439 5.07492 13.6175L5.53242 14.99C5.58461 15.1453 5.68617 15.2792 5.8216 15.3713C5.95702 15.4633 6.11887 15.5086 6.28242 15.5H9.28242C9.43965 15.5005 9.59304 15.4514 9.72089 15.3599C9.84875 15.2684 9.94461 15.139 9.99492 14.99L10.4524 13.6175C10.5109 13.4439 10.6309 13.2977 10.7898 13.2065C10.9487 13.1154 11.1355 13.0855 11.3149 13.1225L12.7249 13.4075C12.8796 13.4397 13.0404 13.4222 13.1845 13.3575C13.3286 13.2929 13.4486 13.1844 13.5274 13.0475L15.0274 10.4525C15.1071 10.3155 15.1412 10.1568 15.1251 9.99916C15.1089 9.84152 15.0432 9.69304 14.9374 9.57504L13.9249 8.49504ZM12.8074 9.50004L13.4074 10.175L12.4474 11.84L11.5624 11.66C11.0223 11.5496 10.4604 11.6414 9.98337 11.9179C9.50639 12.1944 9.14753 12.6364 8.97492 13.16L8.68992 14H6.76992L6.49992 13.145C6.32731 12.6214 5.96846 12.1794 5.49148 11.9029C5.01449 11.6264 4.45259 11.5346 3.91242 11.645L3.02742 11.825L2.05242 10.1675L2.65242 9.49254C3.02139 9.08003 3.22537 8.54599 3.22537 7.99254C3.22537 7.43909 3.02139 6.90506 2.65242 6.49254L2.05242 5.81754L3.01242 4.16754L3.89742 4.34754C4.43759 4.45796 4.99949 4.3662 5.47648 4.08969C5.95346 3.81318 6.31231 3.37116 6.48492 2.84754L6.76992 2.00004H8.68992L8.97492 2.85504C9.14753 3.37866 9.50639 3.82068 9.98337 4.09719C10.4604 4.3737 11.0223 4.46546 11.5624 4.35504L12.4474 4.17504L13.4074 5.84004L12.8074 6.51504C12.4426 6.92661 12.2411 7.45756 12.2411 8.00754C12.2411 8.55753 12.4426 9.08847 12.8074 9.50004ZM7.72992 5.00004C7.13658 5.00004 6.55656 5.17599 6.06321 5.50564C5.56986 5.83528 5.18535 6.30381 4.95828 6.85199C4.73122 7.40017 4.67181 8.00337 4.78757 8.58531C4.90332 9.16726 5.18904 9.70181 5.6086 10.1214C6.02816 10.5409 6.56271 10.8266 7.14465 10.9424C7.72659 11.0582 8.32979 10.9987 8.87797 10.7717C9.42615 10.5446 9.89469 10.1601 10.2243 9.66675C10.554 9.17341 10.7299 8.59339 10.7299 8.00004C10.7299 7.20439 10.4139 6.44133 9.85124 5.87872C9.28863 5.31611 8.52557 5.00004 7.72992 5.00004ZM7.72992 9.50004C7.43325 9.50004 7.14324 9.41207 6.89657 9.24725C6.64989 9.08243 6.45763 8.84816 6.3441 8.57407C6.23057 8.29998 6.20087 7.99838 6.25874 7.70741C6.31662 7.41644 6.45948 7.14916 6.66926 6.93938C6.87904 6.72961 7.14631 6.58674 7.43729 6.52887C7.72826 6.47099 8.02986 6.50069 8.30395 6.61422C8.57804 6.72776 8.8123 6.92001 8.97713 7.16669C9.14195 7.41336 9.22992 7.70337 9.22992 8.00004C9.22992 8.39787 9.07189 8.7794 8.79058 9.0607C8.50928 9.34201 8.12775 9.50004 7.72992 9.50004Z" fill="white" fill-opacity="0.8" style="mix-blend-mode:plus-lighter"/>
</svg>
