<svg width="13" height="18" viewBox="0 0 13 18" fill="none" xmlns="http://www.w3.org/2000/svg">
<path d="M8.2325 1.5L8.54 3.36C7.9025 3.1275 7.22 3 6.5 3C5.7875 3 5.0975 3.1275 4.4675 3.3525L4.775 1.5H8.2325ZM8.54 14.64L8.2325 16.5H4.775L4.4675 14.6475C5.0975 14.8725 5.7875 15 6.5 15C7.22 15 7.9025 14.8725 8.54 14.64ZM9.5 0H3.5L2.7875 4.2975C1.3925 5.3925 0.5 7.0875 0.5 9C0.5 10.9125 1.3925 12.6075 2.7875 13.7025L3.5 18H9.5L10.22 13.7025C11.6075 12.6075 12.5 10.905 12.5 9C12.5 7.095 11.6075 5.3925 10.22 4.2975L9.5 0ZM6.5 13.5C4.0175 13.5 2 11.4825 2 9C2 6.5175 4.0175 4.5 6.5 4.5C8.9825 4.5 11 6.5175 11 9C11 11.4825 8.9825 13.5 6.5 13.5Z" fill="white"/>
</svg>
